<?xml version="1.0" encoding="UTF-8"?>
<svg width="804px" height="910px" viewBox="0 0 804 910" version="1.1" xmlns="http://www.w3.org/2000/svg" xmlns:xlink="http://www.w3.org/1999/xlink">
    <title>Group</title>
    <defs>
        <linearGradient x1="0%" y1="0%" x2="0%" y2="100%" id="linearGradient-1">
            <stop stop-color="#F5F7FA" stop-opacity="0.95" offset="0%"></stop>
            <stop stop-color="#E1E5EA" stop-opacity="0.95" offset="100%"></stop>
        </linearGradient>
        <linearGradient x1="0%" y1="0%" x2="0%" y2="100%" id="linearGradient-2">
            <stop stop-color="#F5F7FA" stop-opacity="0.95" offset="0%"></stop>
            <stop stop-color="#E1E5EA" stop-opacity="0.95" offset="100%"></stop>
        </linearGradient>
        <linearGradient x1="0%" y1="0%" x2="0%" y2="100%" id="linearGradient-3">
            <stop stop-color="#8FA7BF" stop-opacity="0.9" offset="0%"></stop>
            <stop stop-color="#6F879F" stop-opacity="0.9" offset="100%"></stop>
        </linearGradient>
        <linearGradient x1="0%" y1="0%" x2="0%" y2="100%" id="linearGradient-4">
            <stop stop-color="#8FA7BF" stop-opacity="0.9" offset="0%"></stop>
            <stop stop-color="#6F879F" stop-opacity="0.9" offset="100%"></stop>
        </linearGradient>
        <linearGradient x1="0%" y1="0%" x2="0%" y2="100%" id="linearGradient-5">
            <stop stop-color="#8FA7BF" stop-opacity="0.9" offset="0%"></stop>
            <stop stop-color="#6F879F" stop-opacity="0.9" offset="100%"></stop>
        </linearGradient>
        <linearGradient x1="0%" y1="0%" x2="0%" y2="100%" id="linearGradient-6">
            <stop stop-color="#8FA7BF" stop-opacity="0.9" offset="0%"></stop>
            <stop stop-color="#6F879F" stop-opacity="0.9" offset="100%"></stop>
        </linearGradient>
        <polygon id="path-7" points="0 30 300 -120 0 -270 -300 -120"></polygon>
        <filter x="-37.8%" y="-74.3%" width="175.7%" height="251.3%" filterUnits="objectBoundingBox" id="filter-8">
            <feMorphology radius="1.5" operator="dilate" in="SourceAlpha" result="shadowSpreadOuter1"></feMorphology>
            <feOffset dx="0" dy="4" in="shadowSpreadOuter1" result="shadowOffsetOuter1"></feOffset>
            <feGaussianBlur stdDeviation="123.5" in="shadowOffsetOuter1" result="shadowBlurOuter1"></feGaussianBlur>
            <feComposite in="shadowBlurOuter1" in2="SourceAlpha" operator="out" result="shadowBlurOuter1"></feComposite>
            <feColorMatrix values="0 0 0 0 0   0 0 0 0 0   0 0 0 0 0  0 0 0 0.25 0" type="matrix" in="shadowBlurOuter1"></feColorMatrix>
        </filter>
    </defs>
    <g id="v5" stroke="none" stroke-width="1" fill="none" fill-rule="evenodd" stroke-linecap="round" stroke-linejoin="round">
        <g id="Group" transform="translate(402, 368)">
            <g transform="translate(-300, 120)" id="Path" stroke-width="3">
                <g transform="translate(300, 180)" stroke="#000000">
                    <polygon stroke-opacity="0.3" fill="url(#linearGradient-1)" points="0 120 -300 -30 -300 90 0 240"></polygon>
                    <polygon stroke-opacity="0.3" fill="url(#linearGradient-1)" points="0 120 300 -30 300 90 0 240"></polygon>
                    <polygon stroke-opacity="0.5" fill="url(#linearGradient-2)" points="0 120 300 -30 0 -180 -300 -30"></polygon>
                </g>
                <g transform="translate(300, 6)" stroke="#FFFFFF">
                    <polygon stroke-opacity="0.22" fill="url(#linearGradient-3)" points="0 135 -144 60 -144 156 0 231"></polygon>
                    <polygon stroke-opacity="0.22" fill="url(#linearGradient-3)" points="0 135 144 60 144 156 0 231"></polygon>
                    <polygon stroke-opacity="0.4" fill="url(#linearGradient-4)" points="0 135 144 60 0 -6 -144 60"></polygon>
                </g>
            </g>
            <g transform="translate(-300, -270)" id="Path">
                <g transform="translate(300, 270)">
                    <polygon stroke-opacity="0.3" stroke="#FFFFFF" stroke-width="3" fill="url(#linearGradient-5)" points="0 30 -300 -120 -300 -30 0 120"></polygon>
                    <polygon stroke-opacity="0.3" stroke="#FFFFFF" stroke-width="3" fill="url(#linearGradient-5)" points="0 30 300 -120 300 -30 0 120"></polygon>
                    <g>
                        <use fill="black" fill-opacity="1" filter="url(#filter-8)" xlink:href="#path-7"></use>
                        <use stroke-opacity="0.5" stroke="#FFFFFF" stroke-width="3" fill="url(#linearGradient-6)" fill-rule="evenodd" xlink:href="#path-7"></use>
                    </g>
                </g>
                <g transform="translate(156, 0)" fill="#EFF2F5" stroke="#000000" stroke-width="3">
                    <polygon stroke-opacity="0.22" points="144 141 288 66 288 162 144 237"></polygon>
                    <polygon stroke-opacity="0.4" points="144 141 288 66 144 0 0 66"></polygon>
                    <polygon stroke-opacity="0.22" points="144 141 0 66 0 162 144 237"></polygon>
                </g>
            </g>
        </g>
    </g>
</svg>